<?xml version="1.0" encoding="utf-8"?>
<!-- Generator: Adobe Illustrator 24.0.1, SVG Export Plug-In . SVG Version: 6.00 Build 0)  -->
<svg version="1.1" id="Layer_1" xmlns="http://www.w3.org/2000/svg" xmlns:xlink="http://www.w3.org/1999/xlink" x="0px" y="0px"
	 viewBox="0 0 300 300" style="enable-background:new 0 0 300 300;" xml:space="preserve">
<style type="text/css">
	.st0{fill:#006633;}
	.st1{fill:none;stroke:#28857A;stroke-miterlimit:10;}
	.st2{fill:#FF681C;}
	.st3{fill:url(#SVGID_1_);}
	.st4{fill:#DE9F93;}
	.st5{fill:#262836;}
	.st6{fill:url(#SVGID_2_);}
	.st7{fill:#FCBDBA;}
	.st8{fill:#473F47;}
	.st9{fill:#FFCA2C;}
	.st10{fill:url(#SVGID_3_);}
	.st11{fill:url(#SVGID_4_);}
	.st12{fill:url(#SVGID_5_);}
	.st13{fill:url(#SVGID_6_);}
	.st14{fill:url(#SVGID_7_);}
	.st15{fill:url(#SVGID_8_);}
	.st16{fill:url(#SVGID_9_);}
	.st17{fill:#FFFFFF;}
	.st18{fill:#FDB9A9;}
	.st19{fill:url(#SVGID_10_);}
	.st20{fill:url(#SVGID_11_);}
	.st21{fill:url(#SVGID_12_);}
	.st22{fill:url(#SVGID_13_);}
	.st23{fill:url(#SVGID_14_);}
	.st24{fill:url(#SVGID_15_);}
	.st25{fill:#A67C52;}
	.st26{fill:#2F3554;}
</style>
<path class="st0" d="M-19.6-29.4C-19.6,6.7-48.9,36-85,36c-31.3,0-57.4-21.9-63.9-51.2c3.3,1.9,8.3,4.3,14.7,5.9
	c8.2,2.1,18.8,2.8,30.9-0.6C-73.7-18.3-54-8.4-47-0.1c0,0-13.2,22.9-51.4,22.1c4.3,1.1,8.8,1.7,13.4,1.7c29.3,0,53.1-23.8,53.1-53.1
	S-55.7-82.5-85-82.5s-53.1,23.8-53.1,53.1c0,4.9,0.7,9.6,1.9,14.1c-5.1-2.3-10.4-5.4-13.9-7.5c-0.2-2.2-0.3-4.4-0.3-6.6
	c0-36.1,29.3-65.4,65.4-65.4S-19.6-65.6-19.6-29.4z"/>
<circle class="st0" cx="-85" cy="-29.4" r="4.9"/>
<rect x="-409.2" y="88.1" class="st1" width="300" height="300"/>
<g>
	<path d="M-248.4-63.8c-10.7-11.9-26.2-19.4-43.5-19.4c-32.3,0-58.4,26.2-58.4,58.4c0,11.8,3.5,22.7,9.5,31.9
		c-1,5.3-5.1,4.5-7.6,3.5c-6.3-10.2-9.9-22.2-9.9-35c0-37,30-67,67-67c19.2,0,36.4,8,48.7,21C-242.3-65-246.1-63.9-248.4-63.8z"/>
	<path d="M-224.3-24.5c0,37-30,67-67,67c-19.5,0-37-8.3-49.2-21.5c0.8-4.8,3.7-5.9,5.8-6c10.7,11.4,25.9,18.6,42.7,18.6
		c32.3,0,58.4-26.1,58.4-58.4c0-11.2-3.2-21.7-8.6-30.5c0,0,0,0,0,0c0.8-2.6,2.8-6,8-4.2C-227.9-49.4-224.3-37.4-224.3-24.5z"/>
	<path d="M-291.3-42.4c-9.9,0-17.8,8-17.8,17.9s8,17.8,17.8,17.8s17.8-8,17.8-17.8S-281.5-42.4-291.3-42.4z M-291.4-15.5
		c-4.9,0-8.9-4-8.9-8.9c0-4.9,4-8.9,8.9-8.9c4.9,0,8.9,4,8.9,8.9C-282.5-19.5-286.5-15.5-291.4-15.5z"/>
</g>
<g>
	<path class="st2" d="M96.8,50.2c0.9,0.4,1.5,1.3,1.3,2.3c-0.2,0.4-0.4,0.7-0.7,1l-1.6,1.8l-0.7-2.5c-0.1-0.5-0.3-0.9-0.7-1.2
		c-0.5-0.3-1.1-0.3-1.5,0c-0.5,0.2-0.9,0.6-1.3,0.9c-0.1,0.1-0.3,0.2-0.4,0.1c-0.1-0.1-0.1-0.3-0.1-0.5
		C91.9,49.9,94.8,49.4,96.8,50.2z"/>
	<g>
		
			<linearGradient id="SVGID_1_" gradientUnits="userSpaceOnUse" x1="123.1442" y1="64.5348" x2="124.9861" y2="29.1293" gradientTransform="matrix(1.0174 0 0 -1.0174 2.2967 289.9543)">
			<stop  offset="1.000000e-02" style="stop-color:#000000"/>
			<stop  offset="8.000000e-02" style="stop-color:#000000;stop-opacity:0.69"/>
			<stop  offset="0.21" style="stop-color:#000000;stop-opacity:0.32"/>
			<stop  offset="1" style="stop-color:#000000;stop-opacity:0"/>
		</linearGradient>
		<path class="st3" d="M111.5,247.9c-1.1,0.3-2.3,0.9-2.6,2c3.5,2.2,7.8,2.7,11.9,2.6c4.1-0.1,8.2-0.8,12.3-0.9
			c5.4,0,11.6,1,15.9-2.3c-1.9-1.2-4.2-1.9-6.5-2C143.3,242.3,114.7,246.9,111.5,247.9z"/>
		<path class="st4" d="M244.8,103.8c0.9-0.2,1.8-0.4,2.6-0.8c0.2,1.5-0.7,2.8-2.1,3.3l0,0c0.1-0.8,0.1-1.6,0-2.3
			c0-0.1,0-0.1-0.1-0.2c0,0-0.1,0-0.2,0L244.8,103.8L244.8,103.8z"/>
		<path class="st5" d="M121.3,250.5v0.1c0.2,0.6,0.9,0.7,1.5,0.8c0.5,0.1,1.1,0.1,1.6,0.1c0.3,0,0.5,0,0.8-0.1
			c0.2-0.1,0.4-0.2,0.6-0.4l1.6-1.2c0.4-0.3,0.9-0.7,1.2-1.1c0.4-0.4,0.5-0.9,0.5-1.5c0-0.6-0.4-1-1-1.2c-0.3,0-0.7,0-1,0
			c-0.8,0.1-1.5-0.3-1.9-0.9c-0.1-0.3-0.2-0.6-0.5-0.8c-0.2-0.1-0.5-0.1-0.7-0.1c-0.5,0-1.1,0.1-1.6,0.3c-0.5,0.2-0.9,0.6-1.1,1.1
			c-0.1,0.2-0.1,0.5-0.1,0.7c0,0.5,0,1,0,1.5c-0.1,0.6-0.1,1.3-0.1,1.9C121.2,250.2,121.3,250.4,121.3,250.5z"/>
		<path class="st5" d="M136.7,250.7c-1.1,0.5-2.2,0.9-3.3,1.2c-0.4,0.2-0.9,0.2-1.4,0.1c-0.4-0.2-0.6-0.5-0.8-0.9
			c-0.1-0.4-0.1-0.8-0.1-1.2c0.1-0.6,0.2-1.3,0.4-1.9c0.1-0.6,0.2-1.1,0.3-1.7c0.1-0.8,0.2-1.6,0.3-2.5l2.9,0.6
			c0.3,0.1,0.6,1.2,0.8,1.5c0.3,0.4,0.7,0.6,1.1,0.6c0.5-0.1,1-0.1,1.5-0.1c0.7,0.2,1.1,0.7,1.1,1.4c0,0.7-0.3,1.3-0.8,1.7
			c-0.5,0.4-1,0.8-1.6,1L136.7,250.7z"/>
		<g>
			
				<linearGradient id="SVGID_2_" gradientUnits="userSpaceOnUse" x1="136.4748" y1="197.0284" x2="144.1983" y2="70.4086" gradientTransform="matrix(1.0174 0 0 -1.0174 2.2967 289.9543)">
				<stop  offset="1.000000e-02" style="stop-color:#000000"/>
				<stop  offset="8.000000e-02" style="stop-color:#000000;stop-opacity:0.69"/>
				<stop  offset="0.21" style="stop-color:#000000;stop-opacity:0.32"/>
				<stop  offset="1" style="stop-color:#000000;stop-opacity:0"/>
			</linearGradient>
			<path class="st6" d="M41.7,187.5c-1.5,0-3.5,0.7-3.1,2.2l66.9,5.4c7.9,0.6,15.8,1.3,23.7,1.3c11.9,0,23.8-1.5,35.8-2.2
				c11.2-0.6,22.5-0.6,33.7-0.5c10.4,0.1,23.2,1.9,33.3-0.8c1.5-0.4,3.1-1.6,3-3.2c0-0.7-0.4-1.5-0.1-2.1c0.2-0.3,0.4-0.6,0.7-0.8
				c2.1-1.3,4.7-0.3,7.1,0.2c3.8,0.8,7.8,0.3,11.3-1.4c0.7-0.3,1.2-0.7,1.6-1.3c0.4-0.6,0.2-1.4-0.3-1.9c-0.3-0.1-0.6-0.2-0.9-0.2
				l-20.5-1.6c-0.8-0.1-1.5,0-2.3,0.2c-0.8,0.4-0.8,1.3-1.4,1.7c-1.1,0.6-3.5,0.3-4.7,0.4c-3.1,0.2-6.2,0.3-9.3,0.5
				c-6.2,0.3-12.4,0.5-18.6,0.8c-12.7,0.4-25.4,0.7-38.1,0.9c-25.1,0.4-50.3,0.6-75.4,1.6C69.8,187.1,55.7,187.2,41.7,187.5z"/>
			<path class="st2" d="M93.1,48.1c-1.2-0.4-2.5-0.4-3.6,0.1c-1.5,0.5-2.7,1.7-3.3,3.2c0,0.4-0.3,0.6-0.7,0.6c0,0-0.1,0-0.1,0
				c-1.3,0-2.6,0.5-3.6,1.4c-1.1,1-1.1,2.3-1.3,3.8c-0.4-0.2-0.8-0.2-1.2,0c-0.4,0.2-0.7,0.4-1,0.7c-0.5,0.4-0.9,0.9-1.2,1.5
				c-0.4,1,0,2.1,0.1,3.1c0,0.1,0,0.2-0.1,0.3c-0.1,0-0.2,0-0.2,0c-0.3-0.1-0.5-0.2-0.8-0.2c-0.7,0-1.3,0.5-1.4,1.2
				c-0.1,0.6-0.1,1.3,0.1,1.9c0.2,0.6,0.1,1.3-0.1,1.9c-0.2,0.4-0.5,0.8-0.8,1.1c-1,0.9-1.6,2.1-1.8,3.5c-0.1,0.6,0.1,1.3,0.5,1.8
				c0.4,0.5,1,0.8,1.7,0.8c1.5-0.2,2-2.3,3.5-2.8c1.4-0.5,3-2.2,4-3.5c0.7-1.1,1.5-2.3,2.7-2.7c0.4-0.1,0.8-0.2,1.2-0.4
				c0.2-0.2,0.4-0.4,0.6-0.7c0.5-0.8,0.9-1.6,1.2-2.5c0.5-1.7,0-3.7,0.8-5.3c0.5-0.9,1.3-1.6,2.4-1.9c0.4-0.1,0.9-0.1,1.3-0.3
				c0.5-0.1,1-0.4,1.4-0.7c1.1-0.6,1.9-1.7,2.1-3C95.4,49.6,94.3,48.5,93.1,48.1z"/>
			<path class="st7" d="M98,118.3c0,0.8,0.3,1.7,0.8,2.4c0.7,0.9,2,1.4,3,2c0.2,0.1,0.4,0.3,0.4,0.5c0,0.2-0.2,0.4-0.4,0.5
				c-0.2,0.1-0.4,0.1-0.7,0c-1-0.2-2.1-0.3-3.1-0.3c-0.5,0-1.1,0.1-1.5-0.4c-0.2-0.3-0.3-0.8-0.2-1.2c0.1-1.5,0-3-0.4-4.5
				c-0.1-0.4-0.2-0.7-0.1-1.1c0.1-0.5,0.6-0.9,1.2-0.8c0.2,0,0.3,0.1,0.5,0.2C98.1,116.3,97.9,117.6,98,118.3z"/>
			<path class="st7" d="M81.2,123.9c-0.1,0.8,0,1.7,0.3,2.5c0.5,1.1,1.6,1.7,2.5,2.6c0.2,0.1,0.3,0.4,0.3,0.6
				c-0.1,0.2-0.2,0.4-0.5,0.4c-0.2,0-0.4,0-0.7-0.1c-1-0.4-2-0.7-3-0.9c-0.5-0.1-1.1-0.2-1.4-0.6c-0.1-0.4-0.1-0.8,0-1.2
				c0.4-1.5,0.6-3,0.5-4.5c0-0.4,0-0.7,0.1-1.1c0.2-0.5,0.8-0.8,1.3-0.5c0.2,0.1,0.3,0.2,0.4,0.3C81.7,122,81.3,123.2,81.2,123.9z"
				/>
			<path class="st8" d="M77.9,83.2c0,0,8.6,12.8,14.3,16.6c-0.1,1.3-0.1,2.6,0.1,3.8c0.3,2.1,1.3,3.9,1.6,5.9l1.1,6.9
				c0,0.3,0.1,0.7,0.4,0.8c0.2,0.1,0.4,0.1,0.6,0l2.4-0.7c-0.1-4.1-0.1-8.2,0.3-12.3c0.2-1.7,0.2-3.3,0.1-5
				c-0.4-3.6-3.4-6.9-5.4-9.8c-1.2-1.8-2.6-4.4-4.3-5.7c-1.4-1.1-3.5-0.6-5.3-0.4c-1.4,0.1-2.7,0-4.1-0.3
				C79.1,82.8,78.4,82.9,77.9,83.2z"/>
			<path class="st8" d="M74.6,83.1c0,0,3.4,15.1,7.2,20.7c-0.6,1.2-1,2.4-1.3,3.6c-0.2,1-0.3,2.1-0.4,3.1l-0.8,12.6
				c1.2,0.1,2.4-0.1,3.6-0.5l4.4-11.1c0.8-1.8,1.3-3.7,1.5-5.6c0-3.8-3.6-17.6-4-18.3c-1-1.6-3-1.8-4.8-2.3c-1.3-0.4-2.6-1-3.7-1.8
				C75.7,83.2,75.2,82.9,74.6,83.1z"/>
			<path class="st7" d="M105.6,71.3c1.8,0.8,3.9,1.2,5.9,0.9c0.6-0.2,1.2-0.2,1.8-0.1c-0.3,0.4-0.5,0.9-0.1,1.2
				c0.1,0.1,0.2,0.1,0.4,0.1c0.5,0.1,1,0,1.4-0.2c0.2-0.1,0.5-0.2,0.7-0.2c0.4,0.1,0.7,0.6,0.6,1c-0.1,0.4-0.4,0.8-0.8,1
				c-1.3,0.8-2.9,0.9-4.2,0.2c-0.4-0.2-0.7-0.5-1.1-0.7c-0.7-0.3-1.5-0.6-2.4-0.7c-2.4-0.5-4.7-1.2-7-2c-0.7-0.2-1.3-0.6-1.7-1.2
				c-0.5-1.1,0.4-3.1,1.7-2.3C102.5,69.5,103.9,70.6,105.6,71.3z"/>
			<path class="st9" d="M94.4,64.8c2.7,1.8,5.7,3,8.8,3.6c0.1,0,0.3,0.1,0.3,0.2c0,0.1,0,0.2-0.1,0.3c-0.6,1.3-1.5,2.5-2.4,3.6
				c-0.1,0.1-0.2,0.2-0.4,0.3c-0.3,0.1-0.6,0-0.9-0.1c-2-0.8-4-1.7-6-2.7c-1.7-0.8-3.3-1.9-4.5-3.3c-0.6-0.7-1-1.7-1.1-2.6
				c0-1.1,1-3,2.3-2.5c0.6,0.2,1.1,1,1.6,1.4C92.9,63.7,93.6,64.3,94.4,64.8z"/>
			
				<linearGradient id="SVGID_3_" gradientUnits="userSpaceOnUse" x1="1106.723" y1="562.2309" x2="1092.8776" y2="546.6771" gradientTransform="matrix(-0.8343 0.5901 -0.5901 -0.8343 1326.3977 -122.3323)">
				<stop  offset="1.000000e-02" style="stop-color:#000000"/>
				<stop  offset="8.000000e-02" style="stop-color:#000000;stop-opacity:0.69"/>
				<stop  offset="0.21" style="stop-color:#000000;stop-opacity:0.32"/>
				<stop  offset="1" style="stop-color:#000000;stop-opacity:0"/>
			</linearGradient>
			<path class="st10" d="M94.4,64.8c2.7,1.8,5.7,3,8.8,3.6c0.1,0,0.3,0.1,0.3,0.2c0,0.1,0,0.2-0.1,0.3c-0.6,1.3-1.5,2.5-2.4,3.6
				c-0.1,0.1-0.2,0.2-0.4,0.3c-0.3,0.1-0.6,0-0.9-0.1c-2-0.8-4-1.7-6-2.7c-1.7-0.8-3.3-1.9-4.5-3.3c-0.6-0.7-1-1.7-1.1-2.6
				c0-1.1,1-3,2.3-2.5c0.6,0.2,1.1,1,1.6,1.4C92.9,63.7,93.6,64.3,94.4,64.8z"/>
			<path class="st9" d="M132.3,59.5c1.3,1.7,1,4.1-0.6,5.4c-0.8,0.7-1.9,1-3,0.8c0,0-4.3,0.1-3.3,4.1l8.1,10.4l-10.4,8.1
				c-4,1-4.1-3.3-4.1-3.3c0.3-2.1-1.2-4.1-3.3-4.4c-2.1-0.3-4.1,1.2-4.4,3.3c-0.3,2.1,1.2,4.1,3.3,4.4c0.1,0,0.1,0,0.2,0
				c3.7,1.2,2.3,4.8,2.3,4.8l-10.4,8.1L85.6,74.5l10.3-8.1c4-1,4.1,3.3,4.1,3.3c-0.3,2.1,1.1,4.1,3.3,4.4c2.1,0.3,4.1-1.1,4.4-3.3
				c0.2-1.1-0.1-2.1-0.8-3c-0.7-0.8-1.6-1.4-2.7-1.5c-3.6-1.2-2.2-4.8-2.2-4.8l10.5-8.3l8.1,10.4c0,0,3.6,1.4,4.8-2.3
				c0.2-2.1,2.1-3.7,4.3-3.5C130.7,58.1,131.6,58.6,132.3,59.5z"/>
			
				<linearGradient id="SVGID_4_" gradientUnits="userSpaceOnUse" x1="2703.8425" y1="-1616.0588" x2="2860.9473" y2="-1692.2709" gradientTransform="matrix(-0.8028 -0.625 -0.625 0.8028 1302.6945 3121.2617)">
				<stop  offset="1.000000e-02" style="stop-color:#000000"/>
				<stop  offset="8.000000e-02" style="stop-color:#000000;stop-opacity:0.69"/>
				<stop  offset="0.21" style="stop-color:#000000;stop-opacity:0.32"/>
				<stop  offset="1" style="stop-color:#000000;stop-opacity:0"/>
			</linearGradient>
			<path class="st11" d="M132.3,59.5c1.3,1.7,1,4.1-0.6,5.4c-0.8,0.7-1.9,1-3,0.8c0,0-4.3,0.1-3.3,4.1l8.1,10.4l-10.4,8.1
				c-4,1-4.1-3.3-4.1-3.3c0.3-2.1-1.2-4.1-3.3-4.4c-2.1-0.3-4.1,1.2-4.4,3.3c-0.3,2.1,1.2,4.1,3.3,4.4c0.1,0,0.1,0,0.2,0
				c3.7,1.2,2.3,4.8,2.3,4.8l-10.4,8.1L85.6,74.5l10.3-8.1c4-1,4.1,3.3,4.1,3.3c-0.3,2.1,1.1,4.1,3.3,4.4c2.1,0.3,4.1-1.1,4.4-3.3
				c0.2-1.1-0.1-2.1-0.8-3c-0.7-0.8-1.6-1.4-2.7-1.5c-3.6-1.2-2.2-4.8-2.2-4.8l10.5-8.3l8.1,10.4c0,0,3.6,1.4,4.8-2.3
				c0.2-2.1,2.1-3.7,4.3-3.5C130.7,58.1,131.6,58.6,132.3,59.5z"/>
			
				<linearGradient id="SVGID_5_" gradientUnits="userSpaceOnUse" x1="93.9558" y1="220.6181" x2="101.9641" y2="181.3419" gradientTransform="matrix(1.0174 0 0 -1.0174 2.2967 289.9543)">
				<stop  offset="1.000000e-02" style="stop-color:#000000"/>
				<stop  offset="8.000000e-02" style="stop-color:#000000;stop-opacity:0.69"/>
				<stop  offset="0.21" style="stop-color:#000000;stop-opacity:0.32"/>
				<stop  offset="1" style="stop-color:#000000;stop-opacity:0"/>
			</linearGradient>
			<path class="st12" d="M98,83.1c2.2,1.8,4.5,3.8,7.2,4.2c1.1,0.2,2.2,0,3.1-0.6c0.3-0.2,0.5-0.5,0.5-0.9c-0.1-0.4-0.6-0.6-1.1-0.7
				c-2.1-0.3-4.1-1-5.8-2.1c-0.7-0.5-1.3-1-1.9-1.5l-4.4-3.9c-0.1-0.1-0.3-0.2-0.4-0.2c-0.2,0-0.3,0.2-0.4,0.4
				c-0.3,0.6-0.5,1.1-0.6,1.7c-0.1,0.7,0,0.8,0.6,1.1C95.8,81.4,96.9,82.2,98,83.1z"/>
			<path class="st7" d="M100,79.7c1.5,1.3,3.4,2.2,5.4,2.5c0.6,0,1.2,0.1,1.7,0.4c-0.4,0.3-0.8,0.8-0.5,1.1c0.1,0.1,0.2,0.2,0.3,0.2
				c0.5,0.2,0.9,0.3,1.4,0.3c0.2,0,0.5,0,0.7,0.1c0.4,0.2,0.5,0.7,0.3,1.1c0,0,0,0,0,0c-0.2,0.4-0.6,0.7-1.1,0.8
				c-1.4,0.5-3,0.1-4.1-1c-0.3-0.3-0.6-0.7-0.9-1c-0.6-0.5-1.3-1-2.1-1.3c-2.1-1.1-4.2-2.4-6.2-3.9c-0.6-0.4-1.1-0.9-1.2-1.6
				c-0.1-1.2,1.2-2.8,2.3-1.7C97.6,77.1,98.6,78.6,100,79.7z"/>
			<path class="st9" d="M74.6,85c0.2,0.2,0.4,0.3,0.6,0.5c0.9,0.5,1.9,1,2.8,1.4c2.5,0.9,5.3,0.9,7.8-0.1c1-0.4,2-0.9,2.8-1.5
				c0.3-0.2,0.6-0.5,0.8-0.8c0.2-0.5,0.3-1.1,0.2-1.7c-0.2-3.1-0.6-6.2,0-9.2c0.2-1,0.5-2,0.9-3c0.7-1.3,1.3-2.6,1.8-4
				c0.3-1.7-0.1-3.5-1.3-4.9c-1.2-1.5-3.3-2.8-5.2-2.2c-2.2,0.8-4.1,2.3-5.5,4.2c-1.5,2.1-2.7,4.5-3.5,6.9c-0.4,1-0.7,1.9-1,2.9
				c-0.6,2.4-1,4.9-1.2,7.3c-0.1,1-0.2,2.1-0.3,3.1C74.4,84.3,74.4,84.7,74.6,85z"/>
			
				<linearGradient id="SVGID_6_" gradientUnits="userSpaceOnUse" x1="1089.3981" y1="541.3219" x2="1120.141" y2="539.6668" gradientTransform="matrix(-0.8343 0.5901 -0.5901 -0.8343 1326.3977 -122.3323)">
				<stop  offset="1.000000e-02" style="stop-color:#000000"/>
				<stop  offset="8.000000e-02" style="stop-color:#000000;stop-opacity:0.69"/>
				<stop  offset="0.21" style="stop-color:#000000;stop-opacity:0.32"/>
				<stop  offset="1" style="stop-color:#000000;stop-opacity:0"/>
			</linearGradient>
			<path class="st13" d="M85.9,86.8c1-0.4,2-0.9,2.8-1.5c0.3-0.2,0.6-0.5,0.8-0.8c0.2-0.5,0.3-1.1,0.2-1.7c-0.2-3.1-0.6-6.2,0-9.2
				c-0.4-0.4-0.8-0.7-1.2-1c-0.9-0.7-2.2-2.2-3.5-2.1c0.3,1.4,0.6,2.8,0.8,4.2c0.2,1.4,0.1,2.9,0.3,4.3c0.3,2.5,0.2,5-0.2,7.4
				C85.9,86.4,85.9,86.6,85.9,86.8z"/>
			<path class="st9" d="M96.9,75c0.1,0.1,0.3,0.2,0.3,0.4c0,0.2-0.1,0.3-0.2,0.4c-0.8,1.2-1.9,2.2-3,2.9c-0.1,0.1-0.3,0.1-0.4,0.2
				c-0.2,0-0.3-0.1-0.4-0.2c-1.8-1.4-3.6-2.7-5.4-4.2c-1.1-0.8-2.1-1.8-3-2.9c-0.6-1-1.1-2.1-1.4-3.2c-1.1-3.4,2.2-4.9,4.4-2.4
				C90.6,69.2,93.3,72.5,96.9,75z"/>
			<path class="st8" d="M96.5,123.2c-0.1-0.2-0.1-0.5,0.1-0.7c0.2-0.2,0.5-0.1,0.8,0c0.6,0.3,1.1,0.5,1.7,0.6
				c0.6,0.2,1.3,0.1,1.8-0.2c0.3-0.2,0.6-0.5,1-0.4c0.2,0,0.3,0.1,0.5,0.2c0.5,0.3,1.1,0.5,1.7,0.6c0.3,0,0.5,0.1,0.7,0.2
				c0.1,0,0.1,0.1,0.1,0.2c0,0.2-0.2,0.3-0.3,0.4c-1.9,0.7-4,0.5-6,0.2c-0.2,0-0.5,0-0.7,0c-0.3,0.1-0.7,0.2-1,0
				C96.6,124.1,96.5,123.7,96.5,123.2z"/>
			<path class="st8" d="M78.6,128.4c-0.1-0.2,0-0.5,0.2-0.7c0.2-0.2,0.5,0,0.8,0.1c0.5,0.3,1.1,0.6,1.7,0.9c0.6,0.2,1.2,0.2,1.8,0
				c0.3-0.1,0.7-0.4,1-0.3c0.2,0.1,0.3,0.1,0.5,0.2c0.5,0.4,1.1,0.6,1.6,0.8c0.3,0.1,0.5,0.2,0.7,0.3c0.1,0,0.1,0.1,0.1,0.2
				c0,0.2-0.2,0.3-0.4,0.3c-2,0.5-4,0-6-0.5c-0.2-0.1-0.4-0.1-0.7-0.1c-0.3,0-0.8,0.1-1-0.2C78.7,129.2,78.6,128.8,78.6,128.4z"/>
			<path class="st7" d="M95.3,56.4c-0.2,0.5-0.3,1-0.4,1.5c-0.1,0.8-0.3,1.5-0.6,2.2c-0.3,0.7-0.8,1.3-1.6,1.6
				c-0.8,0.2-1.6-0.2-1.9-0.9c-0.4,0.1-0.6,0.6-0.6,1.1c0.1,0.4,0,0.9-0.2,1.3c-0.4,0.5-1.2,0.3-1.7-0.1c-1.7-1.1-2.5-3.1-2.1-5.1
				c0.4-2,0.4-4.4,1.6-6.2c0.4-0.6,0.9-1.1,1.5-1.5c0.5-0.4,1.2-0.6,1.8-0.7c0.5,0,0.9,0,1.4,0.1c1.9,0.3,3.5,0.6,3.6,2.8
				C96.1,53.9,95.8,55.2,95.3,56.4z"/>
			<path class="st2" d="M93,52.9c-0.3,0-0.6-0.1-0.9,0.1s-0.3,0.6-0.4,0.9c-0.3,0.6-1.1,0.7-1.7,1c-0.7,0.4-1.2,1.2-1.2,2
				c0-0.3-0.1-0.5-0.2-0.8c-0.1-0.2-0.4-0.3-0.7-0.1c0,0,0,0,0,0c-0.1,0.1-0.1,0.2-0.1,0.3c-0.1,0.5,0.2,1,0.6,1.4
				c-0.4,0.8-1.2,1.3-2.1,1.3c-0.3,0-0.5-0.1-0.8-0.3c-0.1-0.1-0.2-0.3-0.3-0.5c-0.5-1.4,0.3-3,0.5-4.5c0-0.5,0.1-1.1,0.3-1.6
				c0.2-0.4,0.4-0.7,0.7-1c0.8-1,2-1.8,3.2-2.2c1.2-0.3,3.6-0.2,4.6,0.8c0.7,0.8,0.5,2-0.3,2.7C93.7,52.7,93.4,52.8,93,52.9z"/>
			
				<linearGradient id="SVGID_7_" gradientUnits="userSpaceOnUse" x1="110.7105" y1="186.3593" x2="109.3669" y2="27.3504" gradientTransform="matrix(1.0174 0 0 -1.0174 2.2967 289.9543)">
				<stop  offset="1.000000e-02" style="stop-color:#000000"/>
				<stop  offset="8.000000e-02" style="stop-color:#000000;stop-opacity:0.69"/>
				<stop  offset="0.21" style="stop-color:#000000;stop-opacity:0.32"/>
				<stop  offset="1" style="stop-color:#000000;stop-opacity:0"/>
			</linearGradient>
			<path class="st14" d="M92.4,190.3v-16.9c2.2-4.8,6.6-1.5,6.6-1.5c1.9,2,5,2.1,7,0.2c2-1.9,2.1-5,0.2-7c-1.9-2-5-2.1-7-0.2
				c-0.1,0.1-0.1,0.1-0.2,0.2c-4.1,2.7-6.6-1.5-6.6-1.5v-16.9h16.9c0,0,4.3-2.5,1.5-6.6c-2-1.9-2.1-5-0.2-7c1.9-2,5-2.1,7-0.2
				c2,1.9,2.1,5,0.2,7c-0.1,0.1-0.1,0.1-0.2,0.2c0,0-3.3,4.4,1.5,6.6h16.9v43.8H92.4z"/>
			<path class="st9" d="M60,189.4h-3.1l31.3-82.7c0.2-0.5,0.7-0.9,1.3-0.9l0,0c0.8,0,1.4,0.6,1.4,1.4c0,0.2,0,0.3-0.1,0.5L60,189.4z
				"/>
			<polygon class="st9" points="78.3,189.4 75.3,189.4 107,105.8 110,105.8 			"/>
			<polygon class="st9" points="102,118.8 85.8,118.8 86.6,116.7 102.8,116.7 			"/>
			<polygon class="st9" points="97,132 80.8,132 81.7,129.8 97.9,129.8 			"/>
			<polygon class="st9" points="92.1,145.1 75.9,145.1 76.7,142.9 92.9,142.9 			"/>
			<polygon class="st9" points="87.1,158.2 70.9,158.2 71.7,156.1 87.9,156.1 			"/>
			<polygon class="st9" points="82.1,171.4 65.9,171.4 66.7,169.2 82.9,169.2 			"/>
			
				<linearGradient id="SVGID_8_" gradientUnits="userSpaceOnUse" x1="105.0384" y1="159.3871" x2="40.2837" y2="122.2472" gradientTransform="matrix(1.0174 0 0 -1.0174 2.2967 289.9543)">
				<stop  offset="1.000000e-02" style="stop-color:#000000"/>
				<stop  offset="8.000000e-02" style="stop-color:#000000;stop-opacity:0.69"/>
				<stop  offset="0.21" style="stop-color:#000000;stop-opacity:0.32"/>
				<stop  offset="1" style="stop-color:#000000;stop-opacity:0"/>
			</linearGradient>
			<path class="st15" d="M86.7,118.8l-4.2,11h15.3l-0.8,2.2H81.8l-4.2,11h15.3l-0.8,2.2H76.8l-4.2,11h15.3l-0.8,2.2H71.8l-4.2,11
				h15.3l-0.8,2.2H66.8l-6.8,18h-3.1l31.3-82.7c0.3-0.7,1.2-1,1.9-0.7c0.5,0.2,0.8,0.7,0.8,1.2c0,0.2,0,0.3-0.1,0.5l-3.4,9h15.3
				l-0.8,2.2L86.7,118.8z"/>
			
				<linearGradient id="SVGID_9_" gradientUnits="userSpaceOnUse" x1="72.2464" y1="174.16" x2="-41.3288" y2="109.0259" gradientTransform="matrix(1.0174 0 0 -1.0174 37.885 314.0156)">
				<stop  offset="1.000000e-02" style="stop-color:#000000"/>
				<stop  offset="8.000000e-02" style="stop-color:#000000;stop-opacity:0.69"/>
				<stop  offset="0.21" style="stop-color:#000000;stop-opacity:0.32"/>
				<stop  offset="1" style="stop-color:#000000;stop-opacity:0"/>
			</linearGradient>
			<polygon class="st16" points="78.3,189.4 75.3,189.4 107,105.8 110,105.8 			"/>
			<path class="st17" d="M230.2,117.9c-0.5,0.4-1,0.6-1.6,0.8c-0.5,0-1.1-0.1-1.6-0.3l-7.5-2.5c-1.2,0.9-1.4,2.6-0.6,3.8
				c0.7,0.8,1.7,1.4,2.8,1.6l5.2,1.9c2.4,1.1,5.2,1.1,7.6,0c1.5-0.5,3.2-1.2,4-2.6s0.2-3.4,0.4-5.1c0.3-1.1,0.5-2.2,0.6-3.3
				c0-1-0.8-2.4-1.9-2.2c-1,0.2-1.6,1.9-2.1,2.6C233.9,114.6,232.1,116.4,230.2,117.9z"/>
			<path class="st18" d="M218.5,115.4c-0.1-0.2-0.2-0.4-0.4-0.5c-0.2-0.2-0.4-0.2-0.6-0.1c-0.2,0.1-0.3,0.4-0.3,0.6
				c0,0.1,0,0.2-0.1,0.2c-0.1,0.1-0.2,0-0.2,0c-0.9-0.2-1.7-0.3-2.6-0.4c-0.3-0.1-0.6,0.1-0.6,0.4c0,0.1,0,0.2,0,0.3
				c0.1,0.3,0.2,0.6,0.4,0.8c0.4,0.7,0.6,1.7,1.3,2.1c0.4,0.3,0.9,0.4,1.4,0.3c0.5,0,1-0.1,1.5-0.1c0.3,0.1,0.7,0,1-0.1
				c0.2-0.2,0.4-0.5,0.3-0.7c-0.1-0.4-0.2-0.9-0.5-1.2C219.1,116.5,218.8,116,218.5,115.4z"/>
			<path class="st18" d="M239.5,172.1c-2.9-0.7-2.3,3.4-3.1,5c-0.5,0.8-1.1,1.5-1.8,2c-0.7,0.6-1.2,1.4-1.3,2.3c0,0.2,0,0.3,0.1,0.5
				c0.1,0.2,0.4,0.3,0.6,0.3c1.6,0.5,3.4,0.3,4.9-0.5c0.7-0.3,1.3-0.9,1.7-1.6c0.3-0.7,0.5-1.5,0.4-2.3
				C241.2,176.2,242,172.7,239.5,172.1z"/>
			<path class="st9" d="M237,180.5c0,0-8.2,0.4-4.7,2.9c3.5,2.6,8.7-0.6,9.2-1.2s0.1-1.6,0.1-1.6L237,180.5z"/>
			<path class="st17" d="M241.1,181.7c-0.7,0.9-4.6,2.1-6.3,2s-3.2-0.9-3.1-2s3.2-3.7,3.7-3.7c0.6,0,1,1.3,2.2,1.6
				c1,0.2,2.1-0.2,2.8-1c0.2-0.3,0.6-0.4,0.9-0.2C241.8,179.4,241.7,180.7,241.1,181.7z"/>
			<path class="st18" d="M249.4,173.7c-2.9-0.7-2.3,3.4-3.1,4.9c-0.5,0.8-1.1,1.5-1.8,2.1c-0.7,0.6-1.2,1.4-1.3,2.3
				c0,0.2,0,0.3,0.1,0.5c0.1,0.2,0.4,0.3,0.6,0.3c1.6,0.5,3.4,0.3,4.9-0.5c0.7-0.3,1.3-0.9,1.7-1.6c0.3-0.7,0.5-1.5,0.4-2.3
				C251.1,177.8,251.9,174.3,249.4,173.7z"/>
			<path class="st9" d="M246.9,182.1c0,0-8.2,0.3-4.7,2.9c3.5,2.6,8.7-0.6,9.2-1.2s0.1-1.6,0.1-1.6L246.9,182.1z"/>
			<path class="st17" d="M251,183.2c-0.7,0.9-4.6,2.1-6.3,2c-1.7-0.1-3.2-0.9-3.1-2c0.2-1.1,3.2-3.7,3.7-3.6c0.6,0.1,1,1.3,2.2,1.6
				c1,0.2,2.1-0.2,2.8-1c0.2-0.3,0.6-0.4,0.9-0.2C251.7,181,251.6,182.2,251,183.2z"/>
			<path class="st8" d="M242,136.5l3.9,40.6l5.6-0.7c2.2-9.9,1.7-39.5,1.7-39.5L242,136.5z"/>
			<path class="st8" d="M245.9,135.4L242,176l-5.6-0.7c-3.2-25.7-0.6-41.6-0.6-41.6L245.9,135.4z"/>
			<path class="st17" d="M236.4,120.7c-0.1-0.7-0.3-1.5-0.3-2.2c-0.2-1.5-0.2-3.1,0.1-4.6c0.3-1.6,0.8-3.2,1.5-4.7
				c0.6-1.3,1.8-1.8,3.1-2.5c1.1-0.6,2.3-1,3.5-1.2c0.9-0.1,1.7,0,2.6,0.1c2.6,0.5,6.1,1.8,7.9,3.9c1.3,1.5,1.5,3.8,1.5,5.8
				c0.1,2.8,0,5.7-0.2,8.5c0,0.4,0,0.8-0.1,1.2c-0.1,3.2-0.6,6.3-1.4,9.3c-0.1,1-0.7,1.8-1.4,2.4c-2.1,1.2-5.2,0.5-7.4,0.2
				c-2.9-0.4-6-0.9-8.6-2.3c-0.5-0.2-1-0.7-1.2-1.2c-0.1-0.7,0-1.4,0.2-2c0.9-2.9,0.2-5.9,0.2-8.9c0-0.5,0.1-1.1,0.1-1.6
				C236.4,121,236.4,120.9,236.4,120.7z"/>
			
				<linearGradient id="SVGID_10_" gradientUnits="userSpaceOnUse" x1="215.2992" y1="213.8924" x2="273.3593" y2="77.5825" gradientTransform="matrix(1.0174 0 0 -1.0174 2.2967 289.9543)">
				<stop  offset="1.000000e-02" style="stop-color:#000000"/>
				<stop  offset="8.000000e-02" style="stop-color:#000000;stop-opacity:0.69"/>
				<stop  offset="0.21" style="stop-color:#000000;stop-opacity:0.32"/>
				<stop  offset="1" style="stop-color:#000000;stop-opacity:0"/>
			</linearGradient>
			<path class="st19" d="M245.6,126c0.7,0.4,1.5,0.7,2.3,0.9c2.4,0.7,4.9,1.1,7.2,1.8c0.2,0,0.3,0.1,0.4,0.2
				c0.1,0.2,0.1,0.3,0.1,0.5c0,0.7-0.1,1.4-0.3,2.1c-0.1,0.3-0.3,0.6-0.5,0.8c-0.3,0.1-0.7,0.1-1.1,0l-9-1.9c-0.6-0.2-1.3-0.2-2-0.2
				c-0.8,0.1-1.6,0.3-2.3,0.6c-1.4,0.4-2.8,0.7-4.2,0.9c0.1-1.7,0.3-3.4,0.6-5.1c0.1-0.5,0.3-1,0.6-1.4c0.3-0.4,0.6-0.9,1-1.2
				c1.4-1.5,2.5-3.4,3.9-4.9c0.8-0.8,1.7-1.3,2.4-2.2c0.3-0.3,2.6-3.3,2.4-3.6c0.5,0.6,1.6,0,2,0.6c0.3,0.4,0,0.9-0.2,1.2
				c-1.7,2.9-2.9,6.1-3.6,9.4C245.2,125.2,245,125.4,245.6,126z"/>
			<path class="st9" d="M238.3,88.8c2.3,1.5,3,4.6,1.5,6.9c-0.7,1.1-1.9,1.9-3.2,2.2c0,0-5.1,1.9-2.3,6.4l14.3,9.1l-9.1,14.3
				c-4.5,2.9-6.4-2.3-6.4-2.3c-0.5-2.7-3.2-4.4-5.8-3.9c-2.7,0.5-4.4,3.2-3.9,5.8c0.5,2.7,3.2,4.4,5.8,3.9c0.1,0,0.1,0,0.2,0
				c5-0.1,4.8,4.9,4.8,4.9l-9.1,14.3l-37-23.5l9-14.2c4.5-2.9,6.4,2.3,6.4,2.3c0.5,2.7,3.1,4.4,5.8,3.9c2.7-0.5,4.4-3.1,3.9-5.8
				c-0.5-2.7-3.1-4.4-5.8-3.9c-0.1,0-0.2,0-0.2,0.1c-5,0.1-4.8-4.9-4.8-4.9l9.2-14.4l14.3,9.1c0,0,5,0.2,4.9-4.8
				c-0.3-1.3-0.1-2.7,0.6-3.9C233,88.1,236,87.4,238.3,88.8z"/>
			<path class="st17" d="M260.4,118.1c0.4,0.6,0.7,1.3,0.9,2c0.3,1.2,0.3,2.5,0.1,3.8c-0.1,1.2-0.6,2.4-1.3,3.4
				c-1.5,1.8-4.3,2-6.6,1.8c-2.7-0.2-5.4-0.8-7.9-1.6c-0.2-0.1-0.5-0.2-0.7-0.3c-0.2-0.2-0.4-0.5-0.4-0.8c-0.2-0.8-0.3-1.5-0.4-2.3
				c2.7-0.8,5.7-0.1,8.6-0.6c0.7,0,1.2-0.5,1.2-1.2c0-0.1,0-0.3-0.1-0.4c-0.1-1.6-1.1-3-1.6-4.5c-0.5-1.5-0.4-3.1,0.1-4.5
				c0.3-1,1.1-1.9,2.1-2.3c1.1-0.4,1.6,0.5,2.2,1.3C258,113.8,259.2,115.9,260.4,118.1z"/>
			<path class="st18" d="M242.9,123c-0.1-0.1-0.2-0.1-0.4-0.2c-0.2,0-0.4,0.2-0.5,0.4c-0.1,0.2-0.2,0.4-0.3,0.6
				c-0.3,0.3-0.7,0.5-1.1,0.4c-0.4,0-0.8,0-1.2,0c-0.2,0-0.3,0.1-0.4,0.2c-0.1,0.1-0.2,0.2-0.2,0.4c-0.1,0.6,0,1.3,0.5,1.7
				c0.4,0.4,1,0.8,1.6,1c0.6,0.3,1.3,0.4,1.9,0.2c0.4-0.1,0.7-0.3,1-0.5l1.3-0.7c0.1-0.1,0.2-0.1,0.3-0.2c0.3-0.4-0.1-1.4-0.4-1.8
				C244.5,123.9,243.7,123.4,242.9,123z"/>
			<path class="st18" d="M242,101.4c0-0.8,0.1-1.6,0.1-2.3c0.1-0.8,0.2-1.4,0.3-2c0-0.4,0.2-0.8,0.5-1c1-0.6,2.2-0.9,3.5-0.9
				c0.9-0.1,1.8,0.3,2.5,0.9c0.4,0.5,0.7,1.2,0.7,1.8c0,1.7-0.1,3.4-0.5,5.1c-0.2,1.3-0.3,2.6-0.2,4c-0.6,0.4-1.4,0.7-2.1,0.8
				c-0.4,0-0.7-0.1-1.1-0.2c-0.2,0-0.4-0.2-0.5-0.3c0-0.1,0-0.3,0-0.4c0-0.1,0-0.3,0-0.4l0,0c0.1-0.8,0-1.6,0-2.3
				c0-0.1,0-0.1-0.1-0.2c0,0-0.1,0-0.2,0h-0.2c-0.4,0-0.8,0-1.2,0c-0.5,0-0.9-0.3-1.2-0.6C242.1,102.7,241.9,102.1,242,101.4z"/>
			<path class="st8" d="M243.6,96.5c-0.3,0-0.5,0.1-0.8,0c-0.2-0.2-0.5-0.4-0.6-0.7c-0.4-0.6-0.6-1.3-0.6-2c0-0.3,0.1-0.6,0.3-0.9
				c0.2-0.2,0.5-0.4,0.8-0.6c0.6-0.3,1.2-0.4,1.8-0.4c0.9,0.1,1.7,0.5,2.4,1.1c0.1,0.1,0.3,0.3,0.5,0.3c0.2,0,0.4,0,0.5,0
				c1.1-0.1,2.3,0.3,3.2,1c0.5,0.4,0.9,1,1.4,1.4c0.5,0.4,1,0.5,1.3,1c0.2,0.5,0.2,1-0.2,1.4c-0.3,0.4-0.8,0.7-1.3,0.8
				c0.2,0.6-0.1,1.3-0.7,1.5c0,0,0,0,0,0c-0.2,0-0.4,0.1-0.6,0.2c-0.1,0.1-0.2,0.3-0.3,0.4c-0.3,0.2-0.7,0.3-0.8,0.7
				c0,0.2-0.1,0.4,0,0.5c0,0.3-0.1,0.5-0.3,0.7c-0.1,0.1-0.3,0.4-0.5,0.5c-0.2,0-0.3-0.2-0.4-0.4c-0.2-0.8-0.2-1.6,0.2-2.3
				c0.2-0.4,0.4-0.8,0.4-1.2c0-0.4-0.6-0.7-0.9-0.5c-0.3,0.2-0.3,0.8-0.7,0.7c0.4-1.2-0.1-2.5-1.2-3.1c-0.6-0.2-1.2-0.3-1.9-0.3
				C244.3,96.5,244,96.5,243.6,96.5L243.6,96.5z"/>
			<path class="st18" d="M216.5,110.4c0.3,0.4,0.3,0.9,0.2,1.4c-0.2,0.5-0.4,0.9-0.7,1.3l-1.4,2.1c-0.4,0.5-0.9,1.2-1.5,1.1
				c-1.6-0.1-2.2-4.1-1.7-5.3C212,109.4,215.5,109.1,216.5,110.4z"/>
			<path class="st9" d="M223.8,146.5v43.8H180v-16.9c0,0,2.5-4.3,6.6-1.5c1.9,2,5,2.1,7,0.2c2-1.9,2.1-5,0.2-7c-1.9-2-5-2.1-7-0.2
				c-0.1,0.1-0.1,0.1-0.2,0.2c0,0-4.4,3.3-6.6-1.5v-16.9h16.9c4.8-2.2,1.5-6.6,1.5-6.6c-2-1.9-2.1-5-0.2-7c1.9-2,5-2.1,7-0.2
				c2,1.9,2.1,5,0.2,7c-0.1,0.1-0.1,0.1-0.2,0.2c-2.7,4.1,1.5,6.6,1.5,6.6H223.8z"/>
			
				<linearGradient id="SVGID_11_" gradientUnits="userSpaceOnUse" x1="110.3029" y1="180.1627" x2="321.4992" y2="32.0984" gradientTransform="matrix(1.0174 0 0 -1.0174 2.2967 289.9543)">
				<stop  offset="1.000000e-02" style="stop-color:#000000"/>
				<stop  offset="8.000000e-02" style="stop-color:#000000;stop-opacity:0.69"/>
				<stop  offset="0.21" style="stop-color:#000000;stop-opacity:0.32"/>
				<stop  offset="1" style="stop-color:#000000;stop-opacity:0"/>
			</linearGradient>
			<path class="st20" d="M223.8,146.5v43.8H180v-16.9c0,0,2.5-4.3,6.6-1.5c1.9,2,5,2.1,7,0.2c2-1.9,2.1-5,0.2-7c-1.9-2-5-2.1-7-0.2
				c-0.1,0.1-0.1,0.1-0.2,0.2c0,0-4.4,3.3-6.6-1.5v-16.9h16.9c4.8-2.2,1.5-6.6,1.5-6.6c-2-1.9-2.1-5-0.2-7c1.9-2,5-2.1,7-0.2
				c2,1.9,2.1,5,0.2,7c-0.1,0.1-0.1,0.1-0.2,0.2c-2.7,4.1,1.5,6.6,1.5,6.6H223.8z"/>
			<path class="st9" d="M151.4,124.6c0,2.7-2.2,5-5,5c-1.4,0-2.6-0.6-3.6-1.5c-4.1-2.7-6.6,1.5-6.6,1.5v16.9H180v-43.8h-43.8v16.9
				c2.2,4.8,6.6,1.5,6.6,1.5c1.9-2,5.1-2.1,7-0.1C150.8,121.9,151.4,123.2,151.4,124.6L151.4,124.6z"/>
			<path class="st9" d="M154.7,153.1c-2,1.9-2.1,5-0.2,7c1.9,2,5,2.1,7,0.2s2.1-5,0.2-7c-0.1-0.1-0.1-0.1-0.2-0.2
				c0,0-3.3-4.4,1.5-6.6h-9.9C153.1,146.5,157.4,148.9,154.7,153.1z"/>
			
				<linearGradient id="SVGID_12_" gradientUnits="userSpaceOnUse" x1="136.814" y1="74.8752" x2="176.6508" y2="289.079" gradientTransform="matrix(1.0174 0 0 -1.0174 2.2967 289.9543)">
				<stop  offset="1.000000e-02" style="stop-color:#000000"/>
				<stop  offset="8.000000e-02" style="stop-color:#000000;stop-opacity:0.69"/>
				<stop  offset="0.21" style="stop-color:#000000;stop-opacity:0.32"/>
				<stop  offset="1" style="stop-color:#000000;stop-opacity:0"/>
			</linearGradient>
			<path class="st21" d="M136.2,102.6v16.9c2.2,4.8,6.6,1.5,6.6,1.5c1.9-2,5-2.1,7-0.2c2,1.9,2.1,5,0.2,7c-1.9,2-5,2.1-7,0.2
				c-0.1-0.1-0.1-0.1-0.2-0.2c-4.1-2.7-6.6,1.5-6.6,1.5v16.9h16.9c0,0,4.3,2.5,1.5,6.6c-2,1.9-2.1,5-0.2,7c1.9,2,5,2.1,7,0.2
				s2.1-5,0.2-7c-0.1-0.1-0.1-0.1-0.2-0.2c0,0-3.3-4.4,1.5-6.6H180v-43.8H136.2z"/>
			<path class="st9" d="M136.2,146.5v43.8H180v-16.9c0,0,2.5-4.3,6.6-1.5c1.9,2,5,2.1,7,0.2c2-1.9,2.1-5,0.2-7c-1.9-2-5-2.1-7-0.2
				c-0.1,0.1-0.1,0.1-0.2,0.2c0,0-4.4,3.3-6.6-1.5v-16.9h-16.9c-4.8,2.2-1.5,6.6-1.5,6.6c2,1.9,2.1,5,0.2,7c-1.9,2-5,2.1-7,0.2
				c-2-1.9-2.1-5-0.2-7c0.1-0.1,0.1-0.1,0.2-0.2c2.7-4.1-1.5-6.6-1.5-6.6H136.2z"/>
			<path class="st9" d="M92.4,190.3v-16.9c2.2-4.8,6.6-1.5,6.6-1.5c1.9,2,5,2.1,7,0.2c2-1.9,2.1-5,0.2-7c-1.9-2-5-2.1-7-0.2
				c-0.1,0.1-0.1,0.1-0.2,0.2c-4.1,2.7-6.6-1.5-6.6-1.5v-16.9h16.9c0,0,4.3-2.5,1.5-6.6c-2-1.9-2.1-5-0.2-7c1.9-2,5-2.1,7-0.2
				c2,1.9,2.1,5,0.2,7c-0.1,0.1-0.1,0.1-0.2,0.2c0,0-3.3,4.4,1.5,6.6h16.9v43.8H92.4z"/>
			
				<linearGradient id="SVGID_13_" gradientUnits="userSpaceOnUse" x1="112.4613" y1="221.3551" x2="106.4462" y2="-43.2119" gradientTransform="matrix(1.0174 0 0 -1.0174 2.2967 289.9543)">
				<stop  offset="1.000000e-02" style="stop-color:#000000"/>
				<stop  offset="8.000000e-02" style="stop-color:#000000;stop-opacity:0.69"/>
				<stop  offset="0.21" style="stop-color:#000000;stop-opacity:0.32"/>
				<stop  offset="1" style="stop-color:#000000;stop-opacity:0"/>
			</linearGradient>
			<path class="st22" d="M92.4,190.3v-16.9c2.2-4.8,6.6-1.5,6.6-1.5c1.9,2,5,2.1,7,0.2c2-1.9,2.1-5,0.2-7c-1.9-2-5-2.1-7-0.2
				c-0.1,0.1-0.1,0.1-0.2,0.2c-4.1,2.7-6.6-1.5-6.6-1.5v-16.9h16.9c0,0,4.3-2.5,1.5-6.6c-2-1.9-2.1-5-0.2-7c1.9-2,5-2.1,7-0.2
				c2,1.9,2.1,5,0.2,7c-0.1,0.1-0.1,0.1-0.2,0.2c0,0-3.3,4.4,1.5,6.6h16.9v43.8H92.4z"/>
			<path class="st9" d="M151.4,124.6c0,2.7-2.2,5-5,5c-1.4,0-2.6-0.6-3.6-1.5c0,0-4.4-3.3-6.6,1.5v16.9h-16.9
				c-4.8-2.2-1.5-6.6-1.5-6.6c2-1.9,2.1-5,0.2-7c-1.9-2-5-2.1-7-0.2c-2,1.9-2.1,5-0.2,7c0.1,0.1,0.1,0.1,0.2,0.2
				c2.7,4.1-1.5,6.6-1.5,6.6H92.4v-43.8h16.8c4.8,2.2,1.5,6.6,1.5,6.6c-2,1.9-2.1,5-0.2,7c1.9,2,5,2.1,7,0.2c2-1.9,2.1-5,0.2-7
				c-0.1-0.1-0.1-0.1-0.2-0.2c-2.7-4.1,1.5-6.6,1.5-6.6h17.1v16.9c0,0,2.5,4.3,6.6,1.5c1.9-2,5.1-2.1,7-0.1
				C150.9,121.9,151.5,123.2,151.4,124.6L151.4,124.6z"/>
			<path class="st9" d="M162.2,208.8c0,2.7-2.1,5-4.9,5c-1.4,0-2.7-0.5-3.6-1.5c0,0-4.4-3.2-6.6,1.6l0.2,16.9l-16.9,0.2
				c-4.9-2.2-1.6-6.6-1.6-6.6c2-1.9,2-5.1,0-7c-1.9-2-5.1-2-7,0c-2,1.9-2,5.1,0,7c0.1,0.1,0.1,0.1,0.2,0.1c2.8,4.1-1.4,6.6-1.4,6.6
				l-16.9,0.2l-0.6-43.8l16.8-0.2c4.9,2.2,1.6,6.6,1.6,6.6c-2,1.9-2,5.1,0,7s5.1,2,7,0s2-5.1,0-7c-0.1-0.1-0.1-0.1-0.2-0.1
				c-2.8-4.1,1.4-6.6,1.4-6.6l17.1-0.2l0.2,16.9c0,0,2.5,4.3,6.6,1.4c0.9-1,2.2-1.6,3.6-1.6C159.9,203.9,162.1,206,162.2,208.8z"/>
			
				<linearGradient id="SVGID_14_" gradientUnits="userSpaceOnUse" x1="88.3741" y1="109.7512" x2="166.2947" y2="25.0681" gradientTransform="matrix(1.0174 0 0 -1.0174 2.2967 289.9543)">
				<stop  offset="1.000000e-02" style="stop-color:#000000"/>
				<stop  offset="8.000000e-02" style="stop-color:#000000;stop-opacity:0.69"/>
				<stop  offset="0.21" style="stop-color:#000000;stop-opacity:0.32"/>
				<stop  offset="1" style="stop-color:#000000;stop-opacity:0"/>
			</linearGradient>
			<path class="st23" d="M109,187.9c-0.6,0.7-1.1,2.1-0.1,2.8c0.3,0.2,0.7,0.3,1.1,0.3l5.1,0.6c-0.2,0,2.5,30.2,3.6,36.6
				c0.1,0.8,0.4,1.7,1.2,1.8c0.5,0,0.9-0.3,1.1-0.7c0.7-1.2,1.2-2.5,1.2-3.9c1.3-9.9,1.9-19.8,1.8-29.7c0-2-0.1-4-1.1-5.7
				c-1.2-1.9-3.2-3.2-5.4-3.5C114.7,185.8,111.1,185.5,109,187.9z"/>
			<path class="st9" d="M136.7,247.6c-0.7,0.4-1.5,0.8-2.3,1.1h-0.1c-1.3,0.5-2.8-1.6-2.8-1.6s-1.9-11.5-1.8-16.3
				c0.1-3.3-0.7-7.9-1.9-16.4c-0.3,8.7-1.8,12.5-1.4,15.6c0.6,4.7-0.1,16.4-0.1,16.4s-1.2,2.3-2.6,2h-0.1c-0.8-0.2-1.6-0.4-2.4-0.7
				c0,0-1.6-16.1-1.6-20.4c0-4.3,0.2-8.1,0.2-8.1l-0.8-13.5l3.5-5.2l0.3-0.1l0.3-0.3l3.9-2.9c0,0,0,0.7-0.1,1.8l3.1,1.6l0.3,0.2
				l0.3,0.1l5.1,0.9c0,0,1.3,20.7,1.8,24.9S136.7,247.6,136.7,247.6z"/>
			
				<linearGradient id="SVGID_15_" gradientUnits="userSpaceOnUse" x1="105.1051" y1="90.5573" x2="149.7201" y2="28.1016" gradientTransform="matrix(1.0174 0 0 -1.0174 2.2967 289.9543)">
				<stop  offset="1.000000e-02" style="stop-color:#000000"/>
				<stop  offset="8.000000e-02" style="stop-color:#000000;stop-opacity:0.69"/>
				<stop  offset="0.21" style="stop-color:#000000;stop-opacity:0.32"/>
				<stop  offset="1" style="stop-color:#000000;stop-opacity:0"/>
			</linearGradient>
			<path class="st24" d="M136.7,247.6c-0.7,0.4-1.5,0.8-2.3,1.1h-0.1c-1.3,0.5-2.8-1.6-2.8-1.6s-1.9-11.5-1.8-16.3
				c0.1-3.3-0.7-7.9-1.9-16.4c-0.3,8.7-1.8,12.5-1.4,15.6c0.6,4.7-0.1,16.4-0.1,16.4s-1.2,2.3-2.6,2h-0.1c-0.8-0.2-1.6-0.4-2.4-0.7
				c0,0-1.6-16.1-1.6-20.4c0-4.3,0.2-8.1,0.2-8.1l-0.8-13.5l3.5-5.2l0.3-0.1l0.3-0.3l3.9-2.9c0,0,0,0.7-0.1,1.8l3.1,1.6l0.3,0.2
				l0.3,0.1l5.1,0.9c0,0,1.3,20.7,1.8,24.9S136.7,247.6,136.7,247.6z"/>
			<path class="st25" d="M160.8,175.5c0.1,0,0.1-0.1,0.2-0.1c0.2,0,0.2,0.3,0.1,0.5c-0.2,0.6-0.5,1.1-0.8,1.5
				c-0.1,0.1-0.2,0.3-0.2,0.4c0,0.2,0.1,0.3,0.3,0.4c0.7,0.8,0.9,1.8,0.7,2.9c-0.3,1-0.8,1.9-1.5,2.6c-0.4,0.4-0.9,0.7-1.4,0.8
				c-1,0-2.2-1.2-2.6-2c-0.3-0.8-0.1-1.8,0.5-2.5C157.2,178.2,158.9,176.6,160.8,175.5z"/>
			<path class="st25" d="M132.5,166c0.3,0.3,0.8,0.7,0.7,1.1c-0.1,0.2-0.3,0.4-0.5,0.5c-0.4,0.5-0.7,1.1-0.7,1.8
				c0,0.6-0.1,1.3-0.3,1.9c-0.2,0.6-0.9,1-1.5,0.9c-0.4-0.1-0.7-0.4-1.1-0.3s-0.4,0.5-0.5,0.7c-0.4,0.6-1.1,1-1.9,0.9
				c-0.7-0.1-1.4-0.4-2.1-0.7c-0.3-0.1-0.5-0.3-0.7-0.5c-0.1-0.2-0.1-0.5-0.1-0.7c0.2-0.7,0.6-1.4,1.1-2c0.8-1.2,1.3-2.6,1.4-4
				c0.1-1,0-2.1,0.6-2.9c0.9-1.1,3-1,4-0.3C132.1,163.2,131.5,165,132.5,166z"/>
			<path class="st26" d="M131.2,161.5c-0.1,0.2-0.3,0.5-0.6,0.6c-0.5,0.3-0.9,0.6-1.3,0.9c-0.4,0.3-0.7,0.7-0.9,1.2
				c-0.2,0.9,0.3,1.9,0,2.9c-0.1,0.2-0.4,0.1-0.5-0.1c-0.1-0.2-0.2-0.4-0.4-0.5c-0.3-0.2-0.7,0.1-0.8,0.5c-0.3,0.8,0.1,1.7,0.9,2
				c0,0.3-0.4,0.4-0.7,0.4c-0.3-0.1-0.6-0.1-0.9-0.1c-0.7,0.1-0.9,1.1-1.6,1.2c-0.5,0-0.9-0.3-1.2-0.7l-0.8-0.9
				c-0.1-0.2-0.3-0.3-0.4-0.5c-0.2-0.1-0.5-0.2-0.7-0.3c-0.2-0.2,0-0.6-0.2-0.8c-0.1-0.1-0.2-0.1-0.3-0.2c-0.5-0.2-0.7-0.8-0.6-1.3
				c0-0.1,0-0.1,0-0.2c0-0.1-0.1-0.1-0.2-0.2c-0.5-0.3-0.7-1-0.5-1.6c0.1-0.3,0.3-0.6,0.6-0.8c0.2-0.3,0.5-0.4,0.8-0.4l0.1-1.2
				c0-0.7,0.6-1.4,1.3-1.4c0.1,0,0.2,0,0.3,0l-0.3-1c0-0.1,0-0.3,0-0.4c0.1-0.1,0.2-0.1,0.3-0.2c0.3-0.1,0.6-0.1,1-0.2
				c-0.1-0.3-0.2-0.6-0.3-0.9c-0.1-0.1,0-0.3,0.1-0.3c0.1,0,0.1,0,0.2,0c0.1,0,0.2,0,0.4,0c0,0-0.2-0.8-0.2-0.9
				c-0.1-0.3,0-0.5,0.1-0.8c0.2-0.2,0.5-0.3,0.8-0.3c0.3,0.1,0.6,0.2,0.8,0.3c0-0.3,0.4-0.5,0.7-0.5c1.2-0.1,2.4,0.5,3.2,1.5
				c0.1,0.1,0.1,0.2,0.2,0.2c0.1,0.1,0.3,0.2,0.5,0.2c0.5,0.2,0.9,0.7,1.1,1.2c0.1,0.5,0.2,1.1,0.2,1.6c0,0.4,0,0.9-0.1,1.3
				C131.3,161.2,131.2,161.4,131.2,161.5z"/>
			<path class="st17" d="M126.7,171.8c0.8,0.3,1.5,0.7,2.2,1.1c0.2,0.1,0.4,0.3,0.6,0.5c0.2,0.2,0.2,0.5,0.1,0.8
				c-0.2,0.3-0.6,0.2-1,0.1c-1.6-0.5-3.3-0.8-5-0.7c-0.2,0-0.5-0.1-0.6-0.2c-0.1-0.2-0.1-0.5,0.1-0.7
				C123.9,170.8,125.3,171.1,126.7,171.8z"/>
			<path class="st17" d="M157.7,185.1c-0.3,0.8-0.8,1.6-1.4,2.2c-0.6,0.7-1.2,1.3-1.8,1.9c-1.5,1.4-3.1,2.8-4.7,4
				c-1.1,1-2.4,1.7-3.9,2.1c-0.6,0.1-1.2,0.1-1.8-0.1c-0.5-0.2-0.9-0.5-1.2-0.9c-0.4-0.4-5.3-6-5.3-6c-0.3,0.1-0.5,0.4-0.6,0.7
				c-0.7,1.4-1.1,3-1.3,4.6c-0.1,0.7-0.1,1.4,0,2.1c0.2,2.4,1,4.9,0.2,7.2c-0.2,0.5-0.4,0.9-0.8,1.3c-0.4,0.3-0.8,0.6-1.2,0.7
				c-0.8,0.3-1.6,0.6-2.4,0.7c-0.5,0.1-1,0.1-1.4,0.2c-1.8,0.1-3.5-0.3-5.3-0.2c-1.5,0.1-3,0.5-4.5,0.4c-0.8,0.2-1.6-0.4-1.8-1.2
				c0-0.1,0-0.2,0-0.2c-0.6-3.2-0.9-6.5-0.9-9.8c0-1.1-0.1-2.3-0.1-3.4c-0.1-1,0.2-3.4-0.9-3.6c-2.8-0.5-5.7,0.1-8.6-0.3
				c0.1-1.9,0.9-3.6,2.2-4.9c0.7-0.6,1.4-1,2.1-1.4c0.9-0.6,1.6-1.4,2.3-2.2c1.9-2.4,4.4-4.3,7.1-5.6c0.4-0.2,0.9-0.4,1.4-0.5h0.1
				c0.1,0,0.1,0,0.2,0c0.6-0.1,1.2,0,1.8,0.1c4,0.7,8,1.6,12,2.7c0.5,0.1,1,0.3,1.4,0.6c0.3,0.3,0.6,0.6,0.8,1
				c1.1,1.7,2.2,3.3,3.3,5c1,1.4,1.9,3.2,3.3,4.3c3.1-1.2,6-2.9,8.6-4.9c0.4-0.3,0.9-0.6,1.3-0.4c0.1,0.1,0.3,0.2,0.4,0.3
				C157.3,182.6,158.2,183.6,157.7,185.1z"/>
		</g>
	</g>
</g>
</svg>
